<?xml version="1.0" encoding="UTF-8" standalone="no"?>
<!DOCTYPE svg PUBLIC "-//W3C//DTD SVG 1.1//EN" "http://www.w3.org/Graphics/SVG/1.1/DTD/svg11.dtd">
<svg width="100%" height="100%" viewBox="0 0 512 512" version="1.1" xmlns="http://www.w3.org/2000/svg" xmlns:xlink="http://www.w3.org/1999/xlink" xml:space="preserve" xmlns:serif="http://www.serif.com/" style="fill-rule:evenodd;clip-rule:evenodd;stroke-linejoin:round;stroke-miterlimit:2;">
    <g transform="matrix(1,0,0,1,-9246,0)">
        <g transform="matrix(0.125,0,0,0.222222,8090.25,0)">
            <g transform="matrix(6.534281,0,0,3.675533,-54925.486863,-847.710143)">
                <path d="M10322.82,230.636C10391.728,230.636 10447.589,286.497 10447.589,355.406L10447.589,732.714C10447.589,801.623 10391.728,857.484 10322.82,857.484L9945.511,857.484C9876.603,857.484 9820.742,801.623 9820.742,732.714C9820.742,623.244 9820.742,464.876 9820.742,355.406C9820.742,286.497 9876.603,230.636 9945.511,230.636C10054.981,230.636 10213.35,230.636 10322.82,230.636Z" style="fill:rgb(244,239,230);"/>
            </g>
            <g transform="matrix(5.114501,0,0,2.874557,6186.550595,-1711.059077)">
                <g transform="matrix(0.998897,0,0,1.000664,7.141565,-6.880526)">
                    <path d="M870.377,1229.571L870.943,1229.006L870.943,1229.198L871.135,1229.005L871.137,1231.085C871.138,1231.286 871.058,1231.479 870.916,1231.621C870.773,1231.763 870.58,1231.843 870.379,1231.843L870.185,1231.843C869.766,1231.843 869.426,1231.504 869.426,1231.086L869.426,1229.006C869.426,1229.2 869.499,1229.377 869.619,1229.511L869.619,1229.007L870.185,1229.571L870.185,1229.006L870.187,1228.249L870.377,1228.249L870.377,1229.006L870.377,1229.571ZM797.347,1231.839C825.515,1252.418 856.679,1265.585 885.934,1273.992C940.638,1289.711 988.698,1288.792 998.2,1288.425L998.2,624.122C992.823,623.261 988.709,618.603 988.709,612.994C988.709,606.774 993.769,601.724 1000,601.724C1006.231,601.724 1011.291,606.774 1011.291,612.994C1011.291,618.603 1007.177,623.26 1001.8,624.122L1001.8,1334.159L1009.056,1334.159C1010.05,1334.159 1010.856,1334.964 1010.856,1335.956L1010.856,1354.037C1010.856,1355.029 1010.05,1355.833 1009.056,1355.833L1001.8,1355.833L1001.8,1401.95C1001.8,1402.368 1001.46,1402.707 1001.042,1402.707L998.958,1402.707C998.54,1402.707 998.2,1402.368 998.2,1401.95L998.2,1355.833L990.944,1355.833C989.95,1355.833 989.144,1355.029 989.144,1354.037L989.144,1335.956C989.144,1334.964 989.95,1334.159 990.944,1334.159L998.2,1334.159L998.2,1292.021C988.185,1292.398 939.877,1293.232 884.938,1277.445C853.953,1268.542 820.869,1254.354 791.338,1231.843L782.685,1231.843C782.266,1231.843 781.926,1231.504 781.926,1231.086L781.926,1229.006C781.926,1228.588 782.266,1228.249 782.685,1228.249L786.744,1228.249C759.187,1206.135 735.068,1176.439 719.165,1136.592C652.865,970.465 800.628,882.48 800.628,882.48C800.987,882.266 801.453,882.383 801.667,882.742L802.735,884.528C802.949,884.887 802.832,885.352 802.472,885.566C802.472,885.566 657.367,972.038 722.509,1135.262C738.838,1176.176 763.968,1206.212 792.564,1228.249L797.268,1228.249C797.687,1228.249 798.026,1228.588 798.026,1229.006L798.026,1231.086C798.026,1231.477 797.729,1231.799 797.347,1231.839ZM1000,605.317C995.755,605.317 992.309,608.757 992.309,612.994C992.309,617.232 995.755,620.672 1000,620.672C1004.245,620.672 1007.691,617.232 1007.691,612.994C1007.691,610.504 1006.5,608.289 1004.657,606.886C1003.364,605.902 1001.75,605.317 1000,605.317ZM1007.256,1337.753L992.744,1337.753L992.744,1352.24L1007.256,1352.24L1007.256,1337.753ZM694.426,1231.086L694.426,1229.006C694.426,1228.588 694.765,1228.249 695.184,1228.249L709.768,1228.249C710.186,1228.249 710.526,1228.588 710.526,1229.006L710.526,1231.086C710.526,1231.504 710.186,1231.843 709.768,1231.843L695.184,1231.843C694.765,1231.843 694.426,1231.504 694.426,1231.086ZM723.593,1231.086L723.593,1229.006C723.593,1228.588 723.932,1228.249 724.351,1228.249L738.934,1228.249C739.353,1228.249 739.692,1228.588 739.692,1229.006L739.692,1231.086C739.692,1231.504 739.353,1231.843 738.934,1231.843L724.351,1231.843C723.932,1231.843 723.593,1231.504 723.593,1231.086ZM752.759,1231.086L752.759,1229.006C752.759,1228.588 753.099,1228.249 753.518,1228.249L768.101,1228.249C768.52,1228.249 768.859,1228.588 768.859,1229.006L768.859,1231.086C768.859,1231.504 768.52,1231.843 768.101,1231.843L753.518,1231.843C753.099,1231.843 752.759,1231.504 752.759,1231.086ZM811.093,1231.086L811.093,1229.006C811.093,1228.588 811.432,1228.249 811.851,1228.249L826.435,1228.249C826.853,1228.249 827.193,1228.588 827.193,1229.006L827.193,1231.086C827.193,1231.504 826.853,1231.843 826.435,1231.843L811.851,1231.843C811.432,1231.843 811.093,1231.504 811.093,1231.086ZM840.26,1231.086L840.26,1229.006C840.26,1228.588 840.599,1228.249 841.018,1228.249L855.601,1228.249C856.02,1228.249 856.359,1228.588 856.359,1229.006L856.359,1231.086C856.359,1231.504 856.02,1231.843 855.601,1231.843L841.018,1231.843C840.599,1231.843 840.26,1231.504 840.26,1231.086Z" style="fill:rgb(200,164,93);"/>
                </g>
                <g transform="matrix(0.998897,0,0,0.998897,9.141565,-0.520074)">
                    <path d="M812.993,851.075L812.993,754.663C812.993,701.214 760.971,695.271 754.697,694.748C754.351,694.726 754.081,694.439 754.081,694.092L754.08,693.351C754.08,692.987 754.375,692.693 754.739,692.693L845.788,692.693L886.299,779.572C892.636,775.524 899.032,771.849 905.434,768.547C987.685,726.13 1067.471,741.629 1126.625,769.025L1129.536,762.279C1139.033,740.263 1145.819,724.489 1147.966,719.398C1158.786,693.747 1163.021,692.693 1163.021,692.693L1247.824,692.693L1247.824,694.666C1247.824,694.666 1187.82,698.017 1187.82,754.507L1187.82,805.622C1207.657,820.528 1220.275,833.633 1223.307,838.945C1223.298,839.156 1223.183,839.347 1223.001,839.454C1222.82,839.561 1222.596,839.569 1222.407,839.474C1218.272,835.379 1206.309,823.576 1187.82,809.899L1187.82,809.903C1176.003,801.159 1161.518,791.65 1144.706,782.901C1140.189,780.55 1135.503,778.253 1130.656,776.041L1000,1077.432L1000,1100.491C1000,1101.393 999.268,1102.125 998.365,1102.125L989.345,1102.125C988.712,1102.125 988.136,1101.76 987.866,1101.188L864.403,839.369C781.588,970.803 805.004,1204.792 998.568,1273.607C1083.6,1303.837 1215.169,1276.815 1238.772,1225.096C1244.581,1212.365 1239.104,1192.822 1244.262,1180.144C1250.496,1164.819 1264.477,1164.819 1266.647,1164.819C1284.785,1165.409 1314.659,1197.468 1244.319,1247.879C1098.498,1352.385 792.213,1297.668 768.933,1035.937C762.103,959.159 781.584,897.451 812.993,851.075ZM849.657,808.1L820.557,746.391L820.557,840.497C829.558,828.567 839.354,817.766 849.657,808.1ZM1124.73,773.415C1121.994,772.239 1119.21,771.091 1116.379,769.978C1015.102,730.15 956.813,758.64 944.449,764.682C926.47,773.47 910.181,785.415 895.745,799.832L1008.604,1041.87C1008.604,1041.87 1081.104,874.457 1121.791,780.224L1124.73,773.415ZM1144.706,778.077L1144.706,743.63L1132.489,771.812C1136.676,773.852 1140.75,775.946 1144.706,778.077ZM1144.706,791.287C1161.798,800.459 1176.301,810.351 1187.82,819.182L1187.82,1075.18C1187.82,1120.655 1216.139,1122.533 1220.753,1122.537C1220.918,1122.532 1221.078,1122.593 1221.197,1122.708C1221.316,1122.823 1221.383,1122.981 1221.383,1123.146C1221.385,1123.369 1221.385,1123.621 1221.385,1123.844C1221.385,1124.006 1221.32,1124.161 1221.206,1124.275C1221.091,1124.39 1220.936,1124.454 1220.774,1124.454L1108.15,1124.44C1107.814,1124.44 1107.541,1124.168 1107.539,1123.832L1107.536,1123.139C1107.535,1122.975 1107.601,1122.818 1107.718,1122.702C1107.835,1122.587 1107.993,1122.524 1108.157,1122.527C1113.025,1122.462 1144.706,1120.301 1144.706,1075.098L1144.706,791.287Z" style="fill:rgb(6,63,53);"/>
                </g>
            </g>
        </g>
    </g>
</svg>
